<?xml version="1.0" standalone="no"?>
<!DOCTYPE svg PUBLIC "-//W3C//DTD SVG 20010904//EN"
 "http://www.w3.org/TR/2001/REC-SVG-20010904/DTD/svg10.dtd">
<svg version="1.0" xmlns="http://www.w3.org/2000/svg"
 width="500.000000pt" height="500.000000pt" viewBox="0 0 500.000000 500.000000"
 preserveAspectRatio="xMidYMid meet">

<g transform="translate(0.000000,500.000000) scale(0.100000,-0.100000)"
fill="#000000" stroke="ffffff">
<path d="M1353 3277 c-12 -12 -157 -206 -322 -432 -267 -363 -350 -468 -312
-396 6 11 36 80 65 153 30 73 79 195 110 270 31 76 56 144 56 152 0 13 -278
253 -300 258 -12 3 -34 -51 -146 -352 -36 -96 -71 -191 -79 -210 -33 -79 -166
-457 -220 -623 -57 -172 -58 -178 -39 -191 10 -8 75 -57 144 -110 l124 -95
368 552 c202 304 368 548 368 544 0 -5 -23 -70 -51 -145 -68 -180 -226 -658
-233 -702 -6 -33 -3 -37 46 -75 29 -22 92 -70 140 -108 l87 -68 278 335 c153
184 279 333 280 332 1 -1 -18 -63 -43 -137 -54 -158 -84 -261 -84 -288 0 -13
35 -46 103 -97 56 -43 117 -90 136 -105 19 -16 38 -26 41 -24 4 3 29 64 55
137 26 73 58 156 71 183 27 57 168 248 303 410 107 128 331 368 338 361 3 -2
-31 -55 -75 -118 -44 -62 -98 -145 -121 -184 -44 -75 -111 -228 -111 -255 0
-9 56 -50 140 -103 l140 -88 58 53 c93 86 415 381 439 402 22 19 21 17 -6 -54
-93 -243 -176 -517 -162 -536 3 -5 24 -22 46 -38 22 -16 82 -62 132 -102 51
-40 95 -73 97 -73 2 0 11 19 20 43 107 290 113 303 183 400 112 155 309 392
437 524 65 68 121 122 123 119 2 -2 -26 -46 -62 -97 -128 -181 -234 -382 -235
-445 0 -17 30 -41 136 -108 l136 -87 28 23 c16 13 135 122 266 243 131 121
296 274 368 340 72 66 158 146 191 177 l60 57 -59 1 c-57 0 -62 -2 -115 -48
-232 -200 -511 -425 -518 -418 -22 22 171 412 276 556 16 23 28 47 25 55 -3 7
-64 63 -136 125 l-131 111 -100 -98 c-155 -154 -438 -499 -562 -686 -21 -31
-40 -56 -41 -54 -2 2 42 116 97 253 56 137 110 270 120 296 l19 47 -143 121
c-78 67 -150 126 -159 131 -18 10 -14 19 -151 -341 -31 -80 -63 -162 -72 -182
-11 -28 -53 -69 -158 -156 -184 -152 -227 -185 -233 -180 -7 7 38 120 92 233
54 113 131 246 183 319 26 37 32 52 24 65 -5 9 -65 64 -134 123 -98 84 -127
104 -140 97 -29 -15 -253 -258 -369 -399 -60 -74 -158 -201 -216 -282 -58 -82
-107 -148 -109 -148 -2 0 42 111 97 248 55 136 109 270 120 299 l20 52 -33 29
c-164 142 -273 231 -280 227 -4 -3 -26 -54 -49 -113 -73 -188 -106 -274 -146
-381 l-39 -103 -254 -269 c-139 -148 -254 -269 -256 -269 -7 0 143 372 268
665 47 109 83 204 79 211 -6 9 -188 166 -281 241 l-28 23 -20 -23z"/>
</g>
</svg>
