<svg xmlns="http://www.w3.org/2000/svg" version="1.1" xmlns:xlink="http://www.w3.org/1999/xlink" xmlns:svgjs="http://svgjs.dev/svgjs" width="1440" height="560" preserveAspectRatio="none" viewBox="0 0 1440 560"><g mask="url(&quot;#SvgjsMask1052&quot;)" fill="none"><rect width="1440" height="560" x="0" y="0" fill="rgba(242, 232, 185, 1)"></rect><path d="M476.8865355529589 333.5239370795547L344.5831504274905 305.4019844399804 316.4611977879162 437.7053695654488 448.76458291338463 465.82732220502305z" fill="rgba(27, 156, 133, 0.62)" class="triangle-float2"></path><path d="M1060.404,599.538C1086.186,599.925,1111.033,587.245,1123.643,564.754C1136.007,542.704,1133.872,514.922,1119.513,494.116C1106.784,475.672,1082.812,473.405,1060.404,473.123C1037.277,472.832,1011.522,473.371,998.665,492.597C984.698,513.483,987.804,541.145,1000.367,562.905C1012.93,584.666,1035.28,599.161,1060.404,599.538" fill="rgba(27, 156, 133, 0.62)" class="triangle-float3"></path><path d="M715.885,574.278C752.431,574.792,788.154,559.023,806.963,527.684C826.3,495.466,827.656,453.881,806.975,422.509C787.925,393.612,750.496,389.664,715.885,389.524C680.931,389.383,642.346,392.322,623.515,421.77C603.582,452.943,609.969,493.534,629.138,525.183C647.587,555.643,680.278,573.777,715.885,574.278" fill="rgba(27, 156, 133, 0.62)" class="triangle-float3"></path><path d="M27.62 177.72 a149.36 149.36 0 1 0 298.72 0 a149.36 149.36 0 1 0 -298.72 0z" fill="rgba(27, 156, 133, 0.62)" class="triangle-float3"></path><path d="M1226.778,301.135C1247.202,300.924,1269.059,296.031,1279.187,278.294C1289.255,260.663,1282.946,239.027,1272.011,221.92C1262.009,206.272,1245.344,196.789,1226.778,196.302C1207.252,195.79,1187.925,203.084,1177.238,219.434C1165.48,237.422,1161.321,261.018,1172.463,279.394C1183.3,297.267,1205.877,301.351,1226.778,301.135" fill="rgba(27, 156, 133, 0.62)" class="triangle-float3"></path><path d="M611.1193347498103 304.68520553582823L544.0229853117386 376.63723123009856 615.9750110060088 443.73358066817025 683.0713604440806 371.7815549739z" fill="rgba(27, 156, 133, 0.62)" class="triangle-float2"></path><path d="M1188.4075150550773 206.27025126253125L1258.0525108456118 258.7515199098805 1310.533779492961 189.10652411934603 1240.8887837024265 136.62525547199675z" fill="rgba(27, 156, 133, 0.62)" class="triangle-float2"></path><path d="M699.319,411.18C749.077,414.373,806.366,409.408,831.478,366.334C856.696,323.079,833.359,270.356,805.785,228.564C781.491,191.743,743.378,168.209,699.319,166.029C650.673,163.622,597.054,174.749,572.892,217.039C548.855,259.11,567.156,310.468,593.597,351.071C617.307,387.48,655.959,408.398,699.319,411.18" fill="rgba(27, 156, 133, 0.62)" class="triangle-float1"></path><path d="M494.68 251.98 a154.53 154.53 0 1 0 309.06 0 a154.53 154.53 0 1 0 -309.06 0z" fill="rgba(27, 156, 133, 0.62)" class="triangle-float2"></path><path d="M37.721,684.264C71.952,683.389,98.065,656.271,113.66,625.787C127.775,598.196,125.598,566.907,112.008,539.054C96.134,506.521,73.849,472.413,37.721,470.15C-1.259,467.708,-36.644,493.956,-54.65,528.613C-71.396,560.845,-63.787,598.61,-45.25,629.847C-27.159,660.332,2.284,685.169,37.721,684.264" fill="rgba(27, 156, 133, 0.62)" class="triangle-float3"></path><path d="M379.327056776055 310.89014007297254L365.26881315113354 196.39493382274708 250.77360690090808 210.4531774476685 264.8318505258295 324.948383697894z" fill="rgba(27, 156, 133, 0.62)" class="triangle-float2"></path><path d="M863.656,599.541C911.379,600.575,962.431,592.417,988.745,552.591C1017.446,509.151,1019.113,450.668,990.951,406.877C964.606,365.912,912.361,358.249,863.656,358.082C814.552,357.913,760.499,364.132,734.835,405.996C708.33,449.231,719.517,505.149,747.616,547.366C772.802,585.206,818.212,598.556,863.656,599.541" fill="rgba(27, 156, 133, 0.62)" class="triangle-float3"></path><path d="M309.5080944895486-73.66457118489683L216.95164167411087 49.161990231383655 432.3346559058291 18.891881630540922z" fill="rgba(27, 156, 133, 0.62)" class="triangle-float3"></path><path d="M671.7951500068084 71.90523022698682L694.9704387996613 132.27892163236857 773.9433315113074 67.32914274039837z" fill="rgba(27, 156, 133, 0.62)" class="triangle-float1"></path><path d="M872.2565844516298 307.17983004094236L836.5219362214503 369.07405636621445 947.2305998244483 391.7289155488476z" fill="rgba(27, 156, 133, 0.62)" class="triangle-float3"></path></g><defs><mask id="SvgjsMask1052"><rect width="1440" height="560" fill="#ffffff"></rect></mask><style>
                @keyframes float1 {
                    0%{transform: translate(0, 0)}
                    50%{transform: translate(-10px, 0)}
                    100%{transform: translate(0, 0)}
                }

                .triangle-float1 {
                    animation: float1 5s infinite;
                }

                @keyframes float2 {
                    0%{transform: translate(0, 0)}
                    50%{transform: translate(-5px, -5px)}
                    100%{transform: translate(0, 0)}
                }

                .triangle-float2 {
                    animation: float2 4s infinite;
                }

                @keyframes float3 {
                    0%{transform: translate(0, 0)}
                    50%{transform: translate(0, -10px)}
                    100%{transform: translate(0, 0)}
                }

                .triangle-float3 {
                    animation: float3 6s infinite;
                }
            </style></defs></svg>