<svg id="Layer_1" data-name="Layer 1" xmlns="http://www.w3.org/2000/svg" viewBox="0 0 450.26 450"><defs><style>.cls-1{fill:#f2e8b9;}.cls-2{fill:#199c85;}</style></defs><g id="Symbols"><g id="logo_symbol-VividRed" data-name="logo symbol-VividRed"><path class="cls-1" d="M462.62,335.93,410,386.06a25.57,25.57,0,0,0,0,36.77L462.62,473c4.89,4.65,12.54.88,12.54-6.17V342.09C475.16,335,467.51,331.28,462.62,335.93Z" transform="translate(-24.9 -25)"/><path class="cls-2" d="M443.53,29.85,270.29,184.52a31.35,31.35,0,0,0-10.35,23.38V441.64c0,16.87,19.17,25.95,31.51,14.92L464.88,301.69a31.18,31.18,0,0,0,10.28-23.24V44.83C475.16,27.89,455.93,18.78,443.53,29.85Z" transform="translate(-24.9 -25)"/></g></g><path class="cls-1" d="M57.73,29.85,231,184.52a31.35,31.35,0,0,1,10.35,23.38V441.64c0,16.87-19.16,25.95-31.51,14.92L36.39,301.69A31.19,31.19,0,0,1,26.1,278.45V44.83C26.1,27.89,45.33,18.78,57.73,29.85Z" transform="translate(-24.9 -25)"/><path class="cls-2" d="M37.44,335.93l52.65,50.13a25.57,25.57,0,0,1,0,36.77L37.44,473c-4.89,4.65-12.54.88-12.54-6.17V342.09C24.9,335,32.56,331.28,37.44,335.93Z" transform="translate(-24.9 -25)"/></svg>