<svg width="222" height="43" viewBox="0 0 222 43" fill="none" xmlns="http://www.w3.org/2000/svg">
<g clip-path="url(#clip0_864_4491)">
<path d="M51.5 36.1841H27.4434V36.8367H51.5V36.1841Z" fill="white"/>
<path d="M70.3125 38.0078H66.4057L65.5493 39.9363H65.02L68.1185 33.0836H68.6093L71.7078 39.9363H71.1785L70.3125 38.0078ZM70.1296 37.5868L68.3591 33.6318L66.5981 37.5868H70.1296ZM73.8818 33.5339H71.4569V33.0836H76.7975V33.5339H74.3726V39.9363H73.8818V33.5339ZM79.3979 33.5339H76.9729V33.0836H82.3135V33.5339H79.8886V39.9363H79.3979V33.5339ZM86.2944 39.9853C85.6337 39.9853 85.037 39.8352 84.5046 39.535C83.9721 39.2282 83.552 38.8105 83.244 38.2819C82.9425 37.7532 82.7918 37.1626 82.7918 36.51C82.7918 35.8573 82.9425 35.2667 83.244 34.7381C83.552 34.2094 83.9721 33.795 84.5046 33.4948C85.037 33.188 85.6337 33.0347 86.2944 33.0347C86.9552 33.0347 87.5518 33.1848 88.0842 33.485C88.6167 33.7852 89.0337 34.1996 89.3352 34.7283C89.6431 35.2569 89.7971 35.8508 89.7971 36.51C89.7971 37.1691 89.6431 37.763 89.3352 38.2917C89.0337 38.8203 88.6167 39.2347 88.0842 39.535C87.5518 39.8352 86.9552 39.9853 86.2944 39.9853ZM86.2944 39.5252C86.8589 39.5252 87.3689 39.3946 87.8244 39.1336C88.2799 38.8725 88.6391 38.5136 88.9021 38.0567C89.1652 37.5934 89.2967 37.0778 89.2967 36.51C89.2967 35.9422 89.1652 35.4299 88.9021 34.973C88.6391 34.5096 88.2799 34.1474 87.8244 33.8864C87.3689 33.6253 86.8589 33.4948 86.2944 33.4948C85.7299 33.4948 85.2167 33.6253 84.7548 33.8864C84.2993 34.1474 83.9401 34.5096 83.6771 34.973C83.414 35.4299 83.2825 35.9422 83.2825 36.51C83.2825 37.0778 83.414 37.5934 83.6771 38.0567C83.9401 38.5136 84.2993 38.8725 84.7548 39.1336C85.2167 39.3946 85.7299 39.5252 86.2944 39.5252ZM96.1759 39.9363L94.5689 37.6456C94.3316 37.6782 94.1134 37.6945 93.9146 37.6945H91.9901V39.9363H91.4993V33.0836H93.9146C94.7614 33.0836 95.4253 33.2892 95.9065 33.7004C96.3876 34.105 96.6282 34.6695 96.6282 35.394C96.6282 35.9357 96.4902 36.3925 96.2144 36.7645C95.945 37.13 95.5568 37.3878 95.0501 37.5379L96.734 39.9363H96.1759ZM93.9146 37.254C94.6331 37.254 95.1816 37.0941 95.5601 36.7743C95.9385 36.448 96.1278 35.9879 96.1278 35.394C96.1278 34.8001 95.9385 34.3432 95.5601 34.0234C95.1816 33.6971 94.6331 33.5339 93.9146 33.5339H91.9901V37.254H93.9146ZM103.91 33.0836V39.9363H103.506L98.9158 33.9843V39.9363H98.425V33.0836H98.8388L103.419 39.0357V33.0836H103.91ZM110.91 39.486V39.9363H106.262V33.0836H110.765V33.5339H106.753V36.2359H110.342V36.6764H106.753V39.486H110.91ZM114.693 37.577V39.9363H114.202V37.577L111.489 33.0836H112.028L114.462 37.1169L116.897 33.0836H117.407L114.693 37.577ZM125.267 38.0078H121.36L120.504 39.9363H119.974L123.073 33.0836H123.564L126.662 39.9363H126.133L125.267 38.0078ZM125.084 37.5868L123.313 33.6318L121.552 37.5868H125.084ZM128.836 33.5339H126.411V33.0836H131.752V33.5339H129.327V39.9363H128.836V33.5339ZM135.44 33.0836H135.931V39.486H139.809V39.9363H135.44V33.0836ZM145.245 38.0078H141.338L140.482 39.9363H139.953L143.051 33.0836H143.542L146.64 39.9363H146.111L145.245 38.0078ZM145.062 37.5868L143.292 33.6318L141.531 37.5868H145.062ZM156.522 33.0836L154.242 39.9363H153.722L151.634 33.7885L149.536 39.9363H149.017L146.727 33.0836H147.246L149.296 39.2511L151.403 33.0836H151.875L153.972 39.2608L156.041 33.0836H156.522Z" fill="white"/>
<path d="M194.557 36.1841H170.5V36.8367H194.557V36.1841Z" fill="white"/>
<path d="M1.49805 24.2733V23.38L3.53083 22.866V6.99468L1.49805 6.51743V5.63637H9.61715V6.51743L7.62045 6.99468V14.2023L13.3339 7.9614C13.4622 7.82271 13.5464 7.6881 13.5865 7.55758C13.6346 7.41889 13.6587 7.29652 13.6587 7.19047C13.6587 6.77441 13.0492 6.54191 11.8304 6.49296V5.63637H18.6745V6.51743C17.9207 6.6398 17.3353 6.76217 16.9183 6.88454C16.5013 6.99875 16.1646 7.1456 15.908 7.32507C15.6594 7.49639 15.4028 7.72889 15.1381 8.02258L10.9523 12.6726L18.1813 22.9028L20.3584 23.38V24.2733H14.0075L8.1497 15.7564L7.62045 16.3437V22.866L9.61715 23.38V24.2733H1.49805ZM25.9595 30.5753C24.6765 30.5753 23.6861 30.3388 22.9885 29.8656C22.2908 29.4006 21.942 28.7724 21.942 27.9811C21.942 27.3774 22.1104 26.9206 22.4472 26.6106C22.776 26.3006 23.1809 26.1456 23.6621 26.1456C24.1512 26.1456 24.5241 26.2842 24.7807 26.5616C25.0373 26.8471 25.2418 27.2061 25.3941 27.6385C25.747 28.6745 26.192 29.1926 26.7293 29.1926C27.2024 29.1926 27.6033 28.8703 27.9321 28.2258C28.2689 27.5895 28.4373 26.6187 28.4373 25.3134V6.99468L26.4286 6.51743V5.63637H34.5478V6.51743L32.539 6.99468V20.5165C32.539 21.6994 32.5269 22.6702 32.5029 23.4289C32.4868 24.1876 32.4467 24.8036 32.3826 25.2767C32.3265 25.7499 32.2423 26.1496 32.13 26.476C32.0257 26.8023 31.8894 27.1286 31.721 27.4549C31.0956 28.4665 30.2576 29.2374 29.2071 29.7677C28.1647 30.3061 27.0821 30.5753 25.9595 30.5753ZM42.2523 24.2733V23.38L44.2853 22.8416V7.03139L42.2523 6.51743V5.63637H50.191C51.6184 5.63637 52.8533 5.86072 53.8957 6.30941C54.9382 6.75809 55.7442 7.39442 56.3136 8.21837C56.8829 9.03417 57.1674 10.0091 57.1674 11.143C57.1674 12.8562 56.5259 14.1819 55.2429 15.12C53.9599 16.0582 52.1438 16.5273 49.7942 16.5273H48.3749V22.8416L51.3457 23.38V24.2733H42.2523ZM48.3749 15.2179H48.5433C49.9787 15.2179 51.049 14.8875 51.7547 14.2267C52.4684 13.5496 52.8254 12.4524 52.8254 10.935C52.8254 9.45839 52.5245 8.41417 51.9231 7.80232C51.3618 7.23126 50.3755 6.94573 48.9641 6.94573H48.3749V15.2179ZM73.6828 24.5303C71.9587 24.5303 70.4393 24.1305 69.1242 23.331C67.8171 22.5316 66.7946 21.4221 66.0568 20.0026C65.3271 18.5749 64.9624 16.9311 64.9624 15.0711C64.9624 13.6516 65.1748 12.3504 65.5998 11.1675C66.0328 9.98458 66.6422 8.96075 67.4281 8.096C68.2139 7.23126 69.1441 6.5623 70.2186 6.08914C71.2931 5.61598 72.4719 5.37939 73.7549 5.37939C74.7012 5.37939 75.6195 5.50992 76.5096 5.77098C77.4077 6.02388 78.2176 6.39098 78.9393 6.87231H79.0355L80.1902 5.63637H80.6592V11.2531H79.8775C79.7412 10.8045 79.5888 10.4006 79.4204 10.0417C79.2601 9.68273 79.0875 9.35233 78.9031 9.05049C78.3417 8.13679 77.6803 7.48416 76.9185 7.09257C76.1567 6.70099 75.2506 6.5052 74.2001 6.5052C72.2596 6.5052 70.7639 7.22718 69.7134 8.67114C68.671 10.1151 68.1497 12.1872 68.1497 14.8875C68.1497 17.5878 68.6751 19.6763 69.7256 21.1529C70.7841 22.6295 72.2756 23.3678 74.2001 23.3678C76.1568 23.3678 77.6601 22.605 78.7106 21.0794C79.32 20.2147 79.737 19.146 79.9615 17.8734H80.6592V24.2733H80.0459L78.9634 22.6825C78.1133 23.327 77.2634 23.7961 76.4134 24.0897C75.5714 24.3834 74.6611 24.5303 73.6828 24.5303ZM97.0058 24.5303C95.7388 24.5303 94.5722 24.2896 93.5057 23.8083C92.4472 23.3188 91.5251 22.6417 90.7392 21.7769C89.9614 20.904 89.3558 19.8884 88.9228 18.7299C88.4978 17.5633 88.2855 16.3029 88.2855 14.9487C88.2855 13.5863 88.4978 12.3259 88.9228 11.1675C89.3558 10.0091 89.9614 8.99746 90.7392 8.13272C91.5251 7.25981 92.4472 6.5827 93.5057 6.10138C94.5722 5.62006 95.7388 5.37939 97.0058 5.37939C98.2728 5.37939 99.4397 5.62006 100.506 6.10138C101.573 6.5827 102.495 7.25981 103.273 8.13272C104.059 8.99746 104.668 10.0091 105.101 11.1675C105.534 12.3259 105.751 13.5863 105.751 14.9487C105.751 16.3029 105.534 17.5633 105.101 18.7299C104.668 19.8884 104.059 20.904 103.273 21.7769C102.495 22.6417 101.573 23.3188 100.506 23.8083C99.4397 24.2896 98.2728 24.5303 97.0058 24.5303ZM97.0058 23.38C98.2006 23.38 99.2072 23.0251 100.025 22.3154C100.843 21.6056 101.464 20.6144 101.889 19.3418C102.314 18.0691 102.527 16.5844 102.527 14.8875C102.527 13.207 102.318 11.7426 101.901 10.4945C101.485 9.23812 100.867 8.26324 100.049 7.56981C99.2312 6.86823 98.2247 6.51743 97.0299 6.51743C95.8351 6.51743 94.8247 6.86823 93.9987 7.56981C93.1808 8.2714 92.5595 9.25444 92.1345 10.5189C91.7175 11.7753 91.509 13.2478 91.509 14.9365C91.509 16.617 91.7175 18.0936 92.1345 19.3663C92.5595 20.6308 93.1808 21.6179 93.9987 22.3276C94.8167 23.0292 95.819 23.38 97.0058 23.38ZM122.163 24.5303C120.904 24.5303 119.785 24.3304 118.807 23.9307C117.837 23.5228 117.079 22.9599 116.534 22.242C116.213 21.8096 115.977 21.3038 115.824 20.7246C115.672 20.1372 115.595 19.3377 115.595 18.3261V6.68875L113.467 6.22375V5.63637H120.443V6.22375L118.314 6.68875V18.632C118.314 20.1902 118.711 21.3691 119.505 22.1685C120.299 22.968 121.365 23.3678 122.704 23.3678C124.444 23.3678 125.679 22.866 126.409 21.8626C126.738 21.4221 126.974 20.8061 127.119 20.0148C127.263 19.2235 127.335 18.1752 127.335 16.8699V6.68875L125.218 6.22375V5.63637H130.511V6.22375L128.37 6.68875V17.9468C128.37 18.9584 128.294 19.815 128.141 20.5165C127.989 21.21 127.756 21.8014 127.444 22.2909C126.97 23.0006 126.277 23.5513 125.362 23.9429C124.448 24.3345 123.382 24.5303 122.163 24.5303ZM153.159 24.7261L141.419 8.30403V23.1964L143.548 23.6859V24.2733H138.244V23.6859L140.385 23.1964V6.68875L138.244 6.22375V5.63637H143.272L152.978 19.0481V6.68875L150.861 6.22375V5.63637H156.166V6.22375L154.013 6.68875V24.7261H153.159ZM170.172 24.4936C168.921 24.4936 167.626 24.0897 166.287 23.2821L165.336 24.2733H164.843L164.398 18.0691L165.048 17.9345C165.529 19.8517 166.162 21.2426 166.948 22.1073C167.742 22.9721 168.788 23.4045 170.088 23.4045C171.178 23.4045 172.04 23.1393 172.673 22.6091C173.307 22.0706 173.624 21.3446 173.624 20.4309C173.624 19.713 173.403 19.0726 172.962 18.5097C172.529 17.9386 171.815 17.3676 170.821 16.7965L168.981 15.8053C167.481 14.9813 166.407 14.1615 165.757 13.3457C165.108 12.5299 164.783 11.5795 164.783 10.4945C164.783 9.51549 165.02 8.64259 165.493 7.87574C165.966 7.10073 166.611 6.49296 167.429 6.05243C168.255 5.60374 169.181 5.37939 170.208 5.37939C171.611 5.37939 172.834 5.88111 173.876 6.88454L174.61 5.6119H175.127L175.344 10.9595H174.658C174.281 9.43391 173.736 8.30811 173.022 7.58205C172.317 6.84783 171.414 6.48072 170.316 6.48072C169.426 6.48072 168.72 6.72138 168.199 7.2027C167.686 7.68403 167.429 8.34482 167.429 9.1851C167.429 9.94379 167.674 10.6209 168.163 11.2164C168.66 11.812 169.494 12.4238 170.665 13.052L172.457 14.0309C173.684 14.6917 174.57 15.426 175.115 16.2336C175.669 17.0412 175.945 17.9672 175.945 19.0114C175.945 20.0475 175.689 20.9815 175.175 21.8137C174.67 22.6376 173.981 23.2903 173.106 23.7716C172.24 24.2529 171.262 24.4936 170.172 24.4936ZM184.356 24.2733V23.6859L186.401 23.1964V6.68875L184.356 6.22375V5.63637H197.78L198.201 10.9595H197.563C197.371 10.2742 197.134 9.55628 196.854 8.80575C196.581 8.04706 196.244 7.32507 195.843 6.6398H189.107V13.933H193.197C193.429 13.4517 193.614 12.9704 193.75 12.4891C193.895 11.9996 194.011 11.5183 194.099 11.0451H194.725V17.8366H194.099C193.939 16.8332 193.638 15.8706 193.197 14.9487H189.107V23.2576H195.723C196.196 22.4745 196.581 21.6994 196.878 20.9326C197.182 20.1657 197.471 19.3907 197.744 18.6076H198.586L197.684 24.2733H184.356ZM206.836 24.2733V23.6859L208.881 23.1964V6.68875L206.836 6.22375V5.63637H213.848V6.22375L211.587 6.68875V23.2576H218.335C218.768 22.5152 219.141 21.7688 219.454 21.0183C219.766 20.2677 220.067 19.4274 220.356 18.4974H221.065L220.163 24.2733H206.836Z" fill="white"/>
</g>
<defs>
<clipPath id="clip0_864_4491">
<rect width="221" height="42.0952" fill="white" transform="translate(0.5 0.452148)"/>
</clipPath>
</defs>
</svg>
