<svg width="195" height="37" viewBox="0 0 195 37" fill="none" xmlns="http://www.w3.org/2000/svg">
<path d="M45.0003 31.4069H23.7739V31.9805H45.0003V31.4069Z" fill="white"/>
<path d="M61.5995 33.0101H58.1523L57.3967 34.7052H56.9297L59.6637 28.6819H60.0967L62.8306 34.7052H62.3637L61.5995 33.0101ZM61.4382 32.6401L59.8759 29.1638L58.3221 32.6401H61.4382ZM64.7489 29.0778H62.6093V28.6819H67.3216V29.0778H65.182V34.7052H64.7489V29.0778ZM69.616 29.0778H67.4764V28.6819H72.1887V29.0778H70.049V34.7052H69.616V29.0778ZM75.7012 34.7482C75.1182 34.7482 74.5918 34.6163 74.122 34.3524C73.6521 34.0828 73.2814 33.7157 73.0097 33.251C72.7437 32.7864 72.6106 32.2672 72.6106 31.6936C72.6106 31.1199 72.7437 30.6008 73.0097 30.1361C73.2814 29.6715 73.6521 29.3072 74.122 29.0433C74.5918 28.7737 75.1182 28.6389 75.7012 28.6389C76.2842 28.6389 76.8106 28.7709 77.2805 29.0347C77.7503 29.2986 78.1182 29.6629 78.3842 30.1275C78.6559 30.5922 78.7918 31.1142 78.7918 31.6936C78.7918 32.2729 78.6559 32.795 78.3842 33.2596C78.1182 33.7243 77.7503 34.0885 77.2805 34.3524C76.8106 34.6163 76.2842 34.7482 75.7012 34.7482ZM75.7012 34.3438C76.1993 34.3438 76.6493 34.2291 77.0512 33.9996C77.4531 33.7702 77.7701 33.4547 78.0021 33.0531C78.2342 32.6458 78.3503 32.1926 78.3503 31.6936C78.3503 31.1945 78.2342 30.7442 78.0021 30.3426C77.7701 29.9354 77.4531 29.617 77.0512 29.3875C76.6493 29.1581 76.1993 29.0433 75.7012 29.0433C75.2031 29.0433 74.7503 29.1581 74.3427 29.3875C73.9408 29.617 73.6238 29.9354 73.3918 30.3426C73.1597 30.7442 73.0437 31.1945 73.0437 31.6936C73.0437 32.1926 73.1597 32.6458 73.3918 33.0531C73.6238 33.4547 73.9408 33.7702 74.3427 33.9996C74.7503 34.2291 75.2031 34.3438 75.7012 34.3438ZM84.4202 34.7052L83.0022 32.6917C82.7928 32.7204 82.6004 32.7347 82.4249 32.7347H80.7268V34.7052H80.2938V28.6819H82.4249C83.1721 28.6819 83.7579 28.8626 84.1824 29.224C84.607 29.5797 84.8192 30.0759 84.8192 30.7126C84.8192 31.1888 84.6975 31.5903 84.4541 31.9173C84.2164 32.2385 83.8739 32.4651 83.4268 32.5971L84.9126 34.7052H84.4202ZM82.4249 32.3475C83.0589 32.3475 83.5428 32.207 83.8768 31.9259C84.2107 31.6391 84.3777 31.2347 84.3777 30.7126C84.3777 30.1906 84.2107 29.7891 83.8768 29.508C83.5428 29.2212 83.0589 29.0778 82.4249 29.0778H80.7268V32.3475H82.4249ZM91.2443 28.6819V34.7052H90.8877L86.8377 29.4736V34.7052H86.4047V28.6819H86.7698L90.8113 33.9136V28.6819H91.2443ZM97.4206 34.3094V34.7052H93.3197V28.6819H97.2933V29.0778H93.7527V31.4526H96.9197V31.8398H93.7527V34.3094H97.4206ZM100.759 32.6315V34.7052H100.326V32.6315L97.9315 28.6819H98.407L100.555 32.2271L102.703 28.6819H103.153L100.759 32.6315ZM110.089 33.0101H106.641L105.886 34.7052H105.419L108.153 28.6819H108.586L111.32 34.7052H110.853L110.089 33.0101ZM109.927 32.6401L108.365 29.1638L106.811 32.6401H109.927ZM113.238 29.0778H111.098V28.6819H115.811V29.0778H113.671V34.7052H113.238V29.0778ZM119.065 28.6819H119.498V34.3094H122.92V34.7052H119.065V28.6819ZM127.716 33.0101H124.269L123.514 34.7052H123.047L125.781 28.6819H126.214L128.948 34.7052H128.481L127.716 33.0101ZM127.555 32.6401L125.993 29.1638L124.439 32.6401H127.555ZM137.667 28.6819L135.655 34.7052H135.196L133.354 29.3015L131.503 34.7052H131.044L129.024 28.6819H129.482L131.291 34.1029L133.15 28.6819H133.566L135.417 34.1115L137.243 28.6819H137.667Z" fill="white"/>
<path d="M171.226 31.4069H150V31.9805H171.226V31.4069Z" fill="white"/>
<path d="M0.880859 20.938V20.1529L2.67449 19.7011V5.75082L0.880859 5.33134V4.55693H8.04477V5.33134L6.28298 5.75082V12.086L11.3243 6.60053C11.4375 6.47863 11.5118 6.36032 11.5471 6.24559C11.5896 6.12369 11.6108 6.01613 11.6108 5.92291C11.6108 5.55722 11.0731 5.35286 9.9976 5.30983V4.55693H16.0365V5.33134C15.3714 5.4389 14.8549 5.54646 14.487 5.65402C14.1191 5.75441 13.8219 5.88348 13.5955 6.04123C13.3761 6.19181 13.1497 6.39617 12.9162 6.65431L9.22284 10.7415L15.6014 19.7334L17.5224 20.1529V20.938H11.9186L6.74996 13.452L6.28298 13.9683V19.7011L8.04477 20.1529V20.938H0.880859ZM22.4645 26.4773C21.3324 26.4773 20.4586 26.2693 19.843 25.8534C19.2274 25.4447 18.9197 24.8926 18.9197 24.197C18.9197 23.6664 19.0682 23.2649 19.3654 22.9924C19.6555 22.7199 20.0128 22.5837 20.4373 22.5837C20.8689 22.5837 21.198 22.7056 21.4244 22.9494C21.6508 23.2003 21.8312 23.5158 21.9656 23.8959C22.277 24.8065 22.6697 25.2619 23.1437 25.2619C23.5612 25.2619 23.9149 24.9786 24.205 24.4122C24.5022 23.8529 24.6508 22.9996 24.6508 21.8523V5.75082L22.8784 5.33134V4.55693H30.0424V5.33134L28.2699 5.75082V17.636C28.2699 18.6757 28.2593 19.529 28.2381 20.1959C28.2239 20.8627 28.1885 21.4041 28.1319 21.82C28.0824 22.2359 28.0081 22.5872 27.909 22.8741C27.8171 23.1609 27.6968 23.4477 27.5482 23.7345C26.9963 24.6237 26.2569 25.3013 25.33 25.7674C24.4102 26.2406 23.455 26.4773 22.4645 26.4773ZM36.8405 20.938V20.1529L38.6343 19.6796V5.78309L36.8405 5.33134V4.55693H43.8452C45.1047 4.55693 46.1943 4.75412 47.1141 5.1485C48.0339 5.54288 48.7451 6.10218 49.2475 6.8264C49.7499 7.54346 50.0009 8.40034 50.0009 9.39704C50.0009 10.9029 49.4349 12.0681 48.3028 12.8927C47.1707 13.7173 45.5683 14.1296 43.4951 14.1296H42.2428V19.6796L44.8641 20.1529V20.938H36.8405ZM42.2428 12.9787H42.3914C43.6579 12.9787 44.6023 12.6883 45.225 12.1075C45.8547 11.5124 46.1697 10.5479 46.1697 9.21419C46.1697 7.91632 45.9042 6.9985 45.3735 6.4607C44.8783 5.95877 44.008 5.7078 42.7627 5.7078H42.2428V12.9787ZM64.5733 21.1639C63.052 21.1639 61.7114 20.8125 60.551 20.1098C59.3977 19.4071 58.4954 18.4319 57.8445 17.1842C57.2006 15.9294 56.8788 14.4845 56.8788 12.8497C56.8788 11.602 57.0662 10.4583 57.4412 9.41855C57.8233 8.37882 58.361 7.47892 59.0544 6.71884C59.7478 5.95877 60.5685 5.37078 61.5167 4.95489C62.4648 4.539 63.5049 4.33105 64.6369 4.33105C65.4718 4.33105 66.2821 4.44578 67.0675 4.67524C67.86 4.89753 68.5746 5.2202 69.2114 5.64326H69.2963L70.3151 4.55693H70.7289V9.49384H70.0392C69.9189 9.09946 69.7845 8.74452 69.6359 8.42902C69.4944 8.11351 69.3421 7.82311 69.1794 7.5578C68.6841 6.7547 68.1005 6.18105 67.4283 5.83687C66.7562 5.49268 65.9566 5.32059 65.0298 5.32059C63.3175 5.32059 61.9978 5.95518 61.0709 7.22437C60.1511 8.49355 59.6912 10.3149 59.6912 12.6883C59.6912 15.0618 60.1548 16.8974 61.0817 18.1953C62.0156 19.4932 63.3317 20.1421 65.0298 20.1421C66.7562 20.1421 68.0827 19.4717 69.0096 18.1308C69.5473 17.3707 69.9152 16.4313 70.1133 15.3127H70.7289V20.938H70.1878L69.2326 19.5398C68.4826 20.1062 67.7326 20.5185 66.9826 20.7767C66.2397 21.0348 65.4365 21.1639 64.5733 21.1639ZM85.1524 21.1639C84.0345 21.1639 83.0051 20.9524 82.0641 20.5293C81.1301 20.0991 80.3165 19.5039 79.6231 18.7438C78.9367 17.9766 78.4024 17.0839 78.0203 16.0656C77.6453 15.0403 77.458 13.9324 77.458 12.7421C77.458 11.5446 77.6453 10.4368 78.0203 9.41855C78.4024 8.40034 78.9367 7.51119 79.6231 6.75111C80.3165 5.98386 81.1301 5.38871 82.0641 4.96565C83.0051 4.54259 84.0345 4.33105 85.1524 4.33105C86.2703 4.33105 87.3 4.54259 88.241 4.96565C89.182 5.38871 89.9957 5.98386 90.682 6.75111C91.3754 7.51119 91.9132 8.40034 92.2952 9.41855C92.6773 10.4368 92.8684 11.5446 92.8684 12.7421C92.8684 13.9324 92.6773 15.0403 92.2952 16.0656C91.9132 17.0839 91.3754 17.9766 90.682 18.7438C89.9957 19.5039 89.182 20.0991 88.241 20.5293C87.3 20.9524 86.2703 21.1639 85.1524 21.1639ZM85.1524 20.1529C86.2067 20.1529 87.0948 19.8409 87.8165 19.2171C88.5382 18.5933 89.0864 17.722 89.4614 16.6034C89.8364 15.4848 90.024 14.1798 90.024 12.6883C90.024 11.2112 89.84 9.92408 89.4721 8.82698C89.1042 7.72272 88.5594 6.86584 87.8377 6.25634C87.116 5.63968 86.2279 5.33134 85.1736 5.33134C84.1194 5.33134 83.2279 5.63968 82.4991 6.25634C81.7774 6.87301 81.2292 7.73706 80.8542 8.8485C80.4863 9.95276 80.3023 11.247 80.3023 12.7313C80.3023 14.2085 80.4863 15.5063 80.8542 16.6249C81.2292 17.7364 81.7774 18.604 82.4991 19.2279C83.2208 19.8445 84.1052 20.1529 85.1524 20.1529ZM107.35 21.1639C106.239 21.1639 105.252 20.9882 104.389 20.6369C103.533 20.2783 102.864 19.7836 102.383 19.1526C102.1 18.7725 101.891 18.3279 101.757 17.8188C101.622 17.3026 101.555 16.5998 101.555 15.7107V5.48193L99.6767 5.07321V4.55693H105.832V5.07321L103.954 5.48193V15.9796C103.954 17.3492 104.304 18.3853 105.004 19.088C105.705 19.7907 106.646 20.1421 107.828 20.1421C109.363 20.1421 110.453 19.7011 111.096 18.8191C111.387 18.4319 111.595 17.8905 111.722 17.195C111.85 16.4995 111.914 15.578 111.914 14.4308V5.48193L110.046 5.07321V4.55693H114.715V5.07321L112.826 5.48193V15.3773C112.826 16.2664 112.759 17.0193 112.625 17.636C112.49 18.2455 112.285 18.7654 112.009 19.1956C111.592 19.8194 110.98 20.3034 110.173 20.6476C109.366 20.9918 108.425 21.1639 107.35 21.1639ZM134.699 21.336L124.341 6.90169V19.9915L126.219 20.4217V20.938H121.539V20.4217L123.428 19.9915V5.48193L121.539 5.07321V4.55693H125.975L134.54 16.3453V5.48193L132.672 5.07321V4.55693H137.353V5.07321L135.453 5.48193V21.336H134.699ZM149.71 21.1316C148.607 21.1316 147.464 20.7767 146.282 20.0668L145.444 20.938H145.009L144.616 15.4848L145.189 15.3665C145.614 17.0516 146.173 18.2742 146.866 19.0342C147.567 19.7943 148.49 20.1744 149.636 20.1744C150.599 20.1744 151.359 19.9413 151.918 19.4752C152.477 19.002 152.757 18.3638 152.757 17.5607C152.757 16.9297 152.562 16.3668 152.173 15.872C151.791 15.3701 151.161 14.8682 150.284 14.3662L148.66 13.495C147.337 12.7708 146.389 12.0501 145.816 11.3331C145.242 10.616 144.956 9.78066 144.956 8.82698C144.956 7.96652 145.165 7.19927 145.582 6.52524C145.999 5.84404 146.569 5.30983 147.291 4.92262C148.019 4.52824 148.837 4.33105 149.742 4.33105C150.981 4.33105 152.059 4.77204 152.979 5.65402L153.627 4.53541H154.083L154.274 9.2357H153.669C153.337 7.89481 152.856 6.90528 152.226 6.2671C151.603 5.62175 150.807 5.29908 149.838 5.29908C149.052 5.29908 148.43 5.51061 147.97 5.93367C147.517 6.35673 147.291 6.93755 147.291 7.67611C147.291 8.34297 147.507 8.93813 147.938 9.46158C148.377 9.98503 149.113 10.5228 150.146 11.0749L151.727 11.9354C152.809 12.5162 153.591 13.1616 154.073 13.8715C154.561 14.5813 154.805 15.3952 154.805 16.313C154.805 17.2237 154.578 18.0447 154.126 18.7761C153.68 19.5003 153.071 20.074 152.3 20.497C151.536 20.9201 150.673 21.1316 149.71 21.1316ZM162.226 20.938V20.4217L164.031 19.9915V5.48193L162.226 5.07321V4.55693H174.071L174.442 9.2357H173.88C173.71 8.63338 173.501 8.00237 173.253 7.34268C173.013 6.67582 172.716 6.04123 172.362 5.4389H166.418V11.8494H170.027C170.232 11.4263 170.395 11.0032 170.515 10.5802C170.642 10.1499 170.745 9.72689 170.823 9.311H171.375V15.2805H170.823C170.682 14.3985 170.416 13.5524 170.027 12.7421H166.418V20.0453H172.256C172.673 19.3569 173.013 18.6757 173.275 18.0017C173.543 17.3277 173.798 16.6465 174.039 15.9581H174.782L173.986 20.938H162.226ZM182.061 20.938V20.4217L183.866 19.9915V5.48193L182.061 5.07321V4.55693H188.249V5.07321L186.254 5.48193V20.0453H192.208C192.59 19.3928 192.919 18.7367 193.195 18.077C193.47 17.4173 193.736 16.6787 193.991 15.8613H194.617L193.821 20.938H182.061Z" fill="white"/>
</svg>
