<svg width="19" height="19" viewBox="0 0 19 19" fill="none" xmlns="http://www.w3.org/2000/svg">
<path fill-rule="evenodd" clip-rule="evenodd" d="M6.60635 4.52405C6.60635 5.28684 6.03217 5.8972 5.11025 5.8972H5.09335C4.20569 5.8972 3.63184 5.28684 3.63184 4.52405C3.63184 3.74513 4.22316 3.15186 5.12767 3.15186C6.03217 3.15186 6.58919 3.74513 6.60635 4.52405ZM6.43218 6.98152V14.9257H3.78816V6.98152H6.43218ZM15.9675 14.9257L15.9676 10.3708C15.9676 7.93072 14.6632 6.79502 12.9233 6.79502C11.5195 6.79502 10.891 7.56607 10.5401 8.10704V6.98178H7.89574C7.93059 7.72724 7.89574 14.9259 7.89574 14.9259H10.5401V10.4893C10.5401 10.2519 10.5573 10.015 10.6272 9.84501C10.8183 9.37071 11.2533 8.87961 11.9838 8.87961C12.9409 8.87961 13.3236 9.60809 13.3236 10.6756V14.9257H15.9675Z" fill="white"/>
</svg>
