<svg width="195" height="37" viewBox="0 0 195 37" fill="none" xmlns="http://www.w3.org/2000/svg">
<path d="M44.9998 31.4062H23.7734V31.9799H44.9998V31.4062Z" fill="black"/>
<path d="M61.5995 33.0118H58.1523L57.3967 34.7069H56.9297L59.6637 28.6836H60.0967L62.8306 34.7069H62.3637L61.5995 33.0118ZM61.4382 32.6418L59.8759 29.1655L58.3221 32.6418H61.4382ZM64.7489 29.0795H62.6093V28.6836H67.3216V29.0795H65.182V34.7069H64.7489V29.0795ZM69.616 29.0795H67.4764V28.6836H72.1887V29.0795H70.049V34.7069H69.616V29.0795ZM75.7012 34.7499C75.1182 34.7499 74.5918 34.618 74.122 34.3541C73.6521 34.0845 73.2814 33.7174 73.0097 33.2527C72.7437 32.7881 72.6106 32.2689 72.6106 31.6953C72.6106 31.1216 72.7437 30.6025 73.0097 30.1378C73.2814 29.6732 73.6521 29.3089 74.122 29.045C74.5918 28.7754 75.1182 28.6406 75.7012 28.6406C76.2842 28.6406 76.8106 28.7726 77.2805 29.0364C77.7503 29.3003 78.1182 29.6646 78.3842 30.1292C78.6559 30.5939 78.7918 31.1159 78.7918 31.6953C78.7918 32.2747 78.6559 32.7967 78.3842 33.2613C78.1182 33.726 77.7503 34.0902 77.2805 34.3541C76.8106 34.618 76.2842 34.7499 75.7012 34.7499ZM75.7012 34.3455C76.1993 34.3455 76.6493 34.2308 77.0512 34.0013C77.4531 33.7719 77.7701 33.4564 78.0021 33.0548C78.2342 32.6475 78.3503 32.1943 78.3503 31.6953C78.3503 31.1962 78.2342 30.7459 78.0021 30.3443C77.7701 29.9371 77.4531 29.6187 77.0512 29.3892C76.6493 29.1598 76.1993 29.045 75.7012 29.045C75.2031 29.045 74.7503 29.1598 74.3427 29.3892C73.9408 29.6187 73.6238 29.9371 73.3918 30.3443C73.1597 30.7459 73.0437 31.1962 73.0437 31.6953C73.0437 32.1943 73.1597 32.6475 73.3918 33.0548C73.6238 33.4564 73.9408 33.7719 74.3427 34.0013C74.7503 34.2308 75.2031 34.3455 75.7012 34.3455ZM84.4202 34.7069L83.0022 32.6934C82.7928 32.7221 82.6004 32.7364 82.4249 32.7364H80.7268V34.7069H80.2938V28.6836H82.4249C83.1721 28.6836 83.7579 28.8643 84.1824 29.2257C84.607 29.5814 84.8192 30.0776 84.8192 30.7143C84.8192 31.1905 84.6975 31.592 84.4541 31.919C84.2164 32.2402 83.8739 32.4668 83.4268 32.5988L84.9126 34.7069H84.4202ZM82.4249 32.3492C83.0589 32.3492 83.5428 32.2087 83.8768 31.9276C84.2107 31.6408 84.3777 31.2364 84.3777 30.7143C84.3777 30.1923 84.2107 29.7908 83.8768 29.5097C83.5428 29.2229 83.0589 29.0795 82.4249 29.0795H80.7268V32.3492H82.4249ZM91.2443 28.6836V34.7069H90.8877L86.8377 29.4753V34.7069H86.4047V28.6836H86.7698L90.8113 33.9153V28.6836H91.2443ZM97.4206 34.3111V34.7069H93.3197V28.6836H97.2933V29.0795H93.7527V31.4543H96.9197V31.8416H93.7527V34.3111H97.4206ZM100.759 32.6332V34.7069H100.326V32.6332L97.9315 28.6836H98.407L100.555 32.2288L102.703 28.6836H103.153L100.759 32.6332ZM110.089 33.0118H106.641L105.886 34.7069H105.419L108.153 28.6836H108.586L111.32 34.7069H110.853L110.089 33.0118ZM109.927 32.6418L108.365 29.1655L106.811 32.6418H109.927ZM113.238 29.0795H111.098V28.6836H115.811V29.0795H113.671V34.7069H113.238V29.0795ZM119.065 28.6836H119.498V34.3111H122.92V34.7069H119.065V28.6836ZM127.716 33.0118H124.269L123.514 34.7069H123.047L125.781 28.6836H126.214L128.948 34.7069H128.481L127.716 33.0118ZM127.555 32.6418L125.993 29.1655L124.439 32.6418H127.555ZM137.667 28.6836L135.655 34.7069H135.196L133.354 29.3032L131.503 34.7069H131.044L129.024 28.6836H129.482L131.291 34.1046L133.15 28.6836H133.566L135.417 34.1132L137.243 28.6836H137.667Z" fill="black"/>
<path d="M171.226 31.4062H150V31.9799H171.226V31.4062Z" fill="black"/>
<path d="M0.880859 20.9351V20.1499L2.67449 19.6982V5.74789L0.880859 5.32842V4.554H8.04477V5.32842L6.28298 5.74789V12.0831L11.3243 6.5976C11.4375 6.4757 11.5118 6.35739 11.5471 6.24266C11.5896 6.12076 11.6108 6.0132 11.6108 5.91998C11.6108 5.55429 11.0731 5.34993 9.9976 5.3069V4.554H16.0365V5.32842C15.3714 5.43597 14.8549 5.54353 14.487 5.65109C14.1191 5.75148 13.8219 5.88055 13.5955 6.0383C13.3761 6.18888 13.1497 6.39324 12.9162 6.65138L9.22284 10.7386L15.6014 19.7304L17.5224 20.1499V20.9351H11.9186L6.74996 13.4491L6.28298 13.9653V19.6982L8.04477 20.1499V20.9351H0.880859ZM22.4645 26.4743C21.3324 26.4743 20.4586 26.2664 19.843 25.8505C19.2274 25.4418 18.9197 24.8897 18.9197 24.1941C18.9197 23.6635 19.0682 23.2619 19.3654 22.9895C19.6555 22.717 20.0128 22.5807 20.4373 22.5807C20.8689 22.5807 21.198 22.7026 21.4244 22.9464C21.6508 23.1974 21.8312 23.5129 21.9656 23.8929C22.277 24.8036 22.6697 25.2589 23.1437 25.2589C23.5612 25.2589 23.9149 24.9757 24.205 24.4092C24.5022 23.8499 24.6508 22.9966 24.6508 21.8493V5.74789L22.8784 5.32842V4.554H30.0424V5.32842L28.2699 5.74789V17.6331C28.2699 18.6728 28.2593 19.5261 28.2381 20.1929C28.2239 20.8598 28.1885 21.4012 28.1319 21.8171C28.0824 22.233 28.0081 22.5843 27.909 22.8711C27.8171 23.158 27.6968 23.4448 27.5482 23.7316C26.9963 24.6208 26.2569 25.2984 25.33 25.7645C24.4102 26.2377 23.455 26.4743 22.4645 26.4743ZM36.8405 20.9351V20.1499L38.6343 19.6767V5.78016L36.8405 5.32842V4.554H43.8452C45.1047 4.554 46.1943 4.75119 47.1141 5.14557C48.0339 5.53995 48.7451 6.09925 49.2475 6.82347C49.7499 7.54053 50.0009 8.39741 50.0009 9.39411C50.0009 10.8999 49.4349 12.0651 48.3028 12.8897C47.1707 13.7144 45.5683 14.1267 43.4951 14.1267H42.2428V19.6767L44.8641 20.1499V20.9351H36.8405ZM42.2428 12.9758H42.3914C43.6579 12.9758 44.6023 12.6854 45.225 12.1046C45.8547 11.5094 46.1697 10.545 46.1697 9.21126C46.1697 7.91339 45.9042 6.99557 45.3735 6.45778C44.8783 5.95584 44.008 5.70487 42.7627 5.70487H42.2428V12.9758ZM64.5733 21.161C63.052 21.161 61.7114 20.8096 60.551 20.1069C59.3977 19.4042 58.4954 18.429 57.8445 17.1813C57.2006 15.9265 56.8788 14.4816 56.8788 12.8467C56.8788 11.5991 57.0662 10.4554 57.4412 9.41562C57.8233 8.3759 58.361 7.47599 59.0544 6.71591C59.7478 5.95584 60.5685 5.36785 61.5167 4.95196C62.4648 4.53607 63.5049 4.32812 64.6369 4.32812C65.4718 4.32812 66.2821 4.44285 67.0675 4.67231C67.86 4.8946 68.5746 5.21727 69.2114 5.64033H69.2963L70.3151 4.554H70.7289V9.49091H70.0392C69.9189 9.09653 69.7845 8.74159 69.6359 8.42609C69.4944 8.11058 69.3421 7.82018 69.1794 7.55487C68.6841 6.75177 68.1005 6.17812 67.4283 5.83394C66.7562 5.48975 65.9566 5.31766 65.0298 5.31766C63.3175 5.31766 61.9978 5.95225 61.0709 7.22144C60.1511 8.49062 59.6912 10.3119 59.6912 12.6854C59.6912 15.0588 60.1548 16.8945 61.0817 18.1924C62.0156 19.4902 63.3317 20.1392 65.0298 20.1392C66.7562 20.1392 68.0827 19.4687 69.0096 18.1278C69.5473 17.3678 69.9152 16.4284 70.1133 15.3098H70.7289V20.9351H70.1878L69.2326 19.5368C68.4826 20.1033 67.7326 20.5156 66.9826 20.7738C66.2397 21.0319 65.4365 21.161 64.5733 21.161ZM85.1524 21.161C84.0345 21.161 83.0051 20.9494 82.0641 20.5264C81.1301 20.0961 80.3165 19.501 79.6231 18.7409C78.9367 17.9737 78.4024 17.0809 78.0203 16.0627C77.6453 15.0373 77.458 13.9295 77.458 12.7392C77.458 11.5417 77.6453 10.4338 78.0203 9.41562C78.4024 8.39741 78.9367 7.50826 79.6231 6.74818C80.3165 5.98093 81.1301 5.38578 82.0641 4.96272C83.0051 4.53966 84.0345 4.32812 85.1524 4.32812C86.2703 4.32812 87.3 4.53966 88.241 4.96272C89.182 5.38578 89.9957 5.98093 90.682 6.74818C91.3754 7.50826 91.9132 8.39741 92.2952 9.41562C92.6773 10.4338 92.8684 11.5417 92.8684 12.7392C92.8684 13.9295 92.6773 15.0373 92.2952 16.0627C91.9132 17.0809 91.3754 17.9737 90.682 18.7409C89.9957 19.501 89.182 20.0961 88.241 20.5264C87.3 20.9494 86.2703 21.161 85.1524 21.161ZM85.1524 20.1499C86.2067 20.1499 87.0948 19.838 87.8165 19.2142C88.5382 18.5903 89.0864 17.7191 89.4614 16.6005C89.8364 15.4819 90.024 14.1769 90.024 12.6854C90.024 11.2083 89.84 9.92115 89.4721 8.82405C89.1042 7.71979 88.5594 6.86291 87.8377 6.25341C87.116 5.63675 86.2279 5.32842 85.1736 5.32842C84.1194 5.32842 83.2279 5.63675 82.4991 6.25341C81.7774 6.87008 81.2292 7.73413 80.8542 8.84557C80.4863 9.94983 80.3023 11.2441 80.3023 12.7284C80.3023 14.2055 80.4863 15.5034 80.8542 16.622C81.2292 17.7335 81.7774 18.6011 82.4991 19.2249C83.2208 19.8416 84.1052 20.1499 85.1524 20.1499ZM107.35 21.161C106.239 21.161 105.252 20.9853 104.389 20.6339C103.533 20.2754 102.864 19.7806 102.383 19.1496C102.1 18.7696 101.891 18.325 101.757 17.8159C101.622 17.2996 101.555 16.5969 101.555 15.7078V5.479L99.6767 5.07028V4.554H105.832V5.07028L103.954 5.479V15.9767C103.954 17.3462 104.304 18.3824 105.004 19.0851C105.705 19.7878 106.646 20.1392 107.828 20.1392C109.363 20.1392 110.453 19.6982 111.096 18.8162C111.387 18.429 111.595 17.8876 111.722 17.1921C111.85 16.4965 111.914 15.5751 111.914 14.4278V5.479L110.046 5.07028V4.554H114.715V5.07028L112.826 5.479V15.3743C112.826 16.2635 112.759 17.0164 112.625 17.6331C112.49 18.2426 112.285 18.7624 112.009 19.1927C111.592 19.8165 110.98 20.3005 110.173 20.6447C109.366 20.9889 108.425 21.161 107.35 21.161ZM134.699 21.3331L124.341 6.89876V19.9886L126.219 20.4188V20.9351H121.539V20.4188L123.428 19.9886V5.479L121.539 5.07028V4.554H125.975L134.54 16.3424V5.479L132.672 5.07028V4.554H137.353V5.07028L135.453 5.479V21.3331H134.699ZM149.71 21.1287C148.607 21.1287 147.464 20.7738 146.282 20.0639L145.444 20.9351H145.009L144.616 15.4819L145.189 15.3636C145.614 17.0487 146.173 18.2712 146.866 19.0313C147.567 19.7914 148.49 20.1714 149.636 20.1714C150.599 20.1714 151.359 19.9384 151.918 19.4723C152.477 18.9991 152.757 18.3609 152.757 17.5578C152.757 16.9268 152.562 16.3639 152.173 15.8691C151.791 15.3672 151.161 14.8652 150.284 14.3633L148.66 13.4921C147.337 12.7678 146.389 12.0472 145.816 11.3302C145.242 10.6131 144.956 9.77774 144.956 8.82405C144.956 7.96359 145.165 7.19634 145.582 6.52231C145.999 5.84111 146.569 5.3069 147.291 4.91969C148.019 4.52531 148.837 4.32812 149.742 4.32812C150.981 4.32812 152.059 4.76911 152.979 5.65109L153.627 4.53249H154.083L154.274 9.23277H153.669C153.337 7.89188 152.856 6.90235 152.226 6.26417C151.603 5.61882 150.807 5.29615 149.838 5.29615C149.052 5.29615 148.43 5.50768 147.97 5.93074C147.517 6.3538 147.291 6.93462 147.291 7.67318C147.291 8.34004 147.507 8.9352 147.938 9.45865C148.377 9.9821 149.113 10.5199 150.146 11.072L151.727 11.9325C152.809 12.5133 153.591 13.1586 154.073 13.8685C154.561 14.5784 154.805 15.3923 154.805 16.3101C154.805 17.2208 154.578 18.0418 154.126 18.7732C153.68 19.4974 153.071 20.071 152.3 20.4941C151.536 20.9172 150.673 21.1287 149.71 21.1287ZM162.226 20.9351V20.4188L164.031 19.9886V5.479L162.226 5.07028V4.554H174.071L174.442 9.23277H173.88C173.71 8.63045 173.501 7.99944 173.253 7.33975C173.013 6.67289 172.716 6.0383 172.362 5.43597H166.418V11.8464H170.027C170.232 11.4234 170.395 11.0003 170.515 10.5773C170.642 10.147 170.745 9.72396 170.823 9.30807H171.375V15.2775H170.823C170.682 14.3956 170.416 13.5494 170.027 12.7392H166.418V20.0424H172.256C172.673 19.354 173.013 18.6728 173.275 17.9988C173.543 17.3247 173.798 16.6435 174.039 15.9552H174.782L173.986 20.9351H162.226ZM182.061 20.9351V20.4188L183.866 19.9886V5.479L182.061 5.07028V4.554H188.249V5.07028L186.254 5.479V20.0424H192.208C192.59 19.3898 192.919 18.7337 193.195 18.0741C193.47 17.4144 193.736 16.6758 193.991 15.8584H194.617L193.821 20.9351H182.061Z" fill="black"/>
</svg>
