<svg width="18" height="19" viewBox="0 0 18 19" fill="none" xmlns="http://www.w3.org/2000/svg">
<g clip-path="url(#clip0_864_4517)">
<path d="M16.5001 12.7501V15.0001C16.5009 15.209 16.4581 15.4158 16.3745 15.6071C16.2908 15.7985 16.168 15.9703 16.0141 16.1115C15.8602 16.2527 15.6785 16.3602 15.4806 16.4272C15.2828 16.4941 15.0731 16.5189 14.8651 16.5001C12.5572 16.2494 10.3403 15.4607 8.39257 14.1976C6.58044 13.0461 5.04407 11.5098 3.89257 9.69763C2.62506 7.74103 1.83625 5.51338 1.59007 3.19513C1.57133 2.98773 1.59598 2.7787 1.66245 2.58135C1.72892 2.384 1.83575 2.20265 1.97615 2.04885C2.11654 1.89505 2.28743 1.77216 2.47792 1.68802C2.6684 1.60388 2.87433 1.56033 3.08257 1.56013H5.33257C5.69655 1.55655 6.04942 1.68544 6.32539 1.92278C6.60137 2.16012 6.78163 2.48972 6.83257 2.85013C6.92754 3.57018 7.10366 4.27718 7.35757 4.95763C7.45848 5.22607 7.48032 5.51782 7.4205 5.79829C7.36069 6.07877 7.22172 6.33621 7.02007 6.54013L6.06757 7.49263C7.13524 9.37029 8.68991 10.925 10.5676 11.9926L11.5201 11.0401C11.724 10.8385 11.9814 10.6995 12.2619 10.6397C12.5424 10.5799 12.8341 10.6017 13.1026 10.7026C13.783 10.9565 14.49 11.1327 15.2101 11.2276C15.5744 11.279 15.9071 11.4625 16.145 11.7433C16.3828 12.024 16.5092 12.3823 16.5001 12.7501Z" stroke="white" stroke-width="1.5" stroke-linecap="round" stroke-linejoin="round"/>
</g>
<defs>
<clipPath id="clip0_864_4517">
<rect width="18" height="18" fill="white" transform="translate(0 0.0600586)"/>
</clipPath>
</defs>
</svg>
