<svg width="38" height="34" viewBox="0 0 38 34" fill="none" xmlns="http://www.w3.org/2000/svg">
<path d="M34.4375 17H28.5V12.25C28.5 9.63008 30.6301 7.5 33.25 7.5H33.8438C34.8309 7.5 35.625 6.70586 35.625 5.71875V2.15625C35.625 1.16914 34.8309 0.375 33.8438 0.375H33.25C26.6891 0.375 21.375 5.68906 21.375 12.25V30.0625C21.375 32.0293 22.9707 33.625 24.9375 33.625H34.4375C36.4043 33.625 38 32.0293 38 30.0625V20.5625C38 18.5957 36.4043 17 34.4375 17ZM13.0625 17H7.125V12.25C7.125 9.63008 9.25508 7.5 11.875 7.5H12.4688C13.4559 7.5 14.25 6.70586 14.25 5.71875V2.15625C14.25 1.16914 13.4559 0.375 12.4688 0.375H11.875C5.31406 0.375 0 5.68906 0 12.25V30.0625C0 32.0293 1.5957 33.625 3.5625 33.625H13.0625C15.0293 33.625 16.625 32.0293 16.625 30.0625V20.5625C16.625 18.5957 15.0293 17 13.0625 17Z" fill="#1176B0"/>
</svg>
